<?xml version="1.0" encoding="UTF-8"?>
<svg id="Camada_2" data-name="Camada 2" xmlns="http://www.w3.org/2000/svg" viewBox="0 0 55.11 55.11">
  <defs>
    <style>
      .cls-1 {
        fill: #ff3ff3;
      }

      .cls-2 {
        fill: #ededed;
      }
    </style>
  </defs>
  <g id="Camada_1" data-name="Camada 1">
    <g>
      <rect class="cls-1" width="55.11" height="55.11" rx="10" ry="10"/>
      <path class="cls-2" d="M43.42,12.36h-23.81c-1.15,0-2.2.6-2.79,1.54-.13.2-.23.42-.31.65-.03.09-.06.18-.09.28l-.09.34-6.7,24.86h0,0c-.56,2.06,1.87,3.55,3.45,2.2,0,0,0,0,0,0,0,0,.01,0,.02-.01.03-.02.05-.05.08-.08l7.63-7.38h.02s0-.02,0-.02l.72-.7,2.08-2.01c.22-.21.51-.33.81-.33h5.98c-.33.32-.65.65-.98.98-.65.67-.65,1.66,0,2.3.32.32.73.49,1.14.49.26,0,.53-.07.77-.2.02-.01.05-.02.07-.04.04-.03.08-.05.12-.08.07-.05.14-.11.2-.17l4.21-4.21c.64-.64.64-1.65.01-2.28-1.35-1.36-2.77-2.79-4.23-4.23-.32-.31-.73-.48-1.16-.48-.43,0-.84.18-1.15.49-.19.2-.32.42-.39.66-.1.32-.1.68.02,1,.08.22.2.43.38.62.15.15.3.3.45.45l.17.17c.09.09.17.17.26.26h-6.92c-.74,0-1.44.29-1.96.81l-.85.85-.84.84h0s-.7.71-.7.71l-1.28,1.28s-.1.09-.15.12c-.03.02-.06.03-.09.05-.02,0-.03.01-.05.02-.55.2-1.2-.29-1.03-.94l3.14-11.73.2-.75.12-.46c.03-.12.07-.23.12-.33.34-.75,1.1-1.25,1.95-1.25h21.47c.29,0,.56-.06.81-.17.77-.32,1.31-1.08,1.31-1.97,0-1.18-.96-2.14-2.14-2.14Z"/>
    </g>
  </g>
</svg>