<?xml version="1.0" encoding="UTF-8"?>
<svg id="Camada_1" xmlns="http://www.w3.org/2000/svg" version="1.1" viewBox="0 0 37.4 31.7">
  <path 
    fill="currentColor" 
    stroke="currentColor"  
    stroke-width="1.5"    
    stroke-linejoin="round"
    d="M2.6,31.7c-.5,0-.9-.1-1.4-.4-.8-.5-1.3-1.4-1.2-2.4H0v-.5C.1,28.4,7,2.8,7,2.8c0-.1,0-.2,0-.3,0-.3.2-.5.4-.7C8.2.7,9.3,0,10.6,0h24.2c1.4,0,2.6,1.1,2.6,2.6s-.6,2-1.6,2.4c-.3.1-.6.2-1,.2H13c-.7,0-1.3.4-1.6,1.1,0,0,0,.2-.1.3l-3.5,13.2c0,.2,0,.4.1.4.1.1.3.1.4,0l.3.3-.2-.3s0,0,0,0l3.7-3.7c.6-.6,1.4-.9,2.3-.9h6.1c0,0-.2-.2-.3-.3-.2-.2-.4-.5-.5-.8-.1-.4-.2-.8,0-1.3,0-.3.3-.6.5-.8.4-.4.9-.6,1.4-.6.6,0,1.1.2,1.4.6,1.5,1.5,2.9,2.9,4.3,4.3.8.8.8,2,0,2.8l-4.3,4.3c0,0-.2.2-.3.2,0,0,0,0-.1,0,0,0,0,0,0,0-.7.4-1.7.3-2.4-.4-.8-.8-.8-2,0-2.9.1-.1.2-.2.4-.4h-5.2c-.2,0-.4,0-.6.2l-10.8,10.5h0c-.5.4-1,.5-1.5.5M1,28.1h0v.5c-.4.9,0,1.6.6,2,.5.3,1.4.5,2.1-.1h0c0,0,10.7-10.4,10.7-10.4.3-.3.7-.4,1.1-.4h7l-.6.6c-.3.3-.7.7-1,1-.5.5-.5,1.3,0,1.8.4.4,1,.5,1.5.2,0,0,.1,0,.1,0,0,0,.1-.1.2-.2l4.3-4.3c.5-.5.5-1.3,0-1.8-1.4-1.4-2.8-2.8-4.3-4.3-.3-.2-.6-.4-.9-.4h0c-.3,0-.7.1-.9.4-.1.1-.3.3-.3.5,0,.3,0,.5,0,.8,0,.2.2.4.3.5.1.2.3.3.5.5l1.1,1.1h-7.9c-.7,0-1.3.3-1.7.7l-3.7,3.7c0,0-.1.1-.2.2,0,0,0,0-.1,0h-.1c-.4.2-.8,0-1.2-.2-.3-.3-.5-.7-.3-1.2l3.5-13.2c0-.1,0-.3.1-.4.4-.9,1.3-1.5,2.3-1.5h21.8c.2,0,.5,0,.7-.1.7-.3,1.1-.9,1.1-1.7s-.8-1.8-1.8-1.8H10.6c-1,0-2,.5-2.5,1.4-.1.2-.2.4-.3.6,0,0,0,.2,0,.2v.4c0,0-6.8,24.8-6.8,24.8Z"/>
</svg>